# xmcd CD database file
#
# Track frame offsets:
#	150
#	41912
#	63771
#	98207
#	129294
#	141640
#	168124
#	196483
#	204556
#	219609
#	233382
#
# Disc length: 3761 seconds
#
# Revision: 0
# Processed by: cddbd v1.5.1PL2 Copyright (c) Steve Scherf et al.
# Submitted via: CDex 1.51
#
DISCID=9c0eaf0b
DTITLE=Danielsson Dell Landgren - Salzau Music On The Water
DYEAR=2006
DGENRE=Jazz
TTITLE0=Part I
TTITLE1=Part II
TTITLE2=Part III
TTITLE3=Part IV
TTITLE4=Part V
TTITLE5=Part VI
TTITLE6=Part VII
TTITLE7=Part VIII
TTITLE8=Part IX
TTITLE9=Part X
TTITLE10=Part XI
EXTD=YEAR: 2006
EXTT0=
EXTT1=
EXTT2=
EXTT3=
EXTT4=
EXTT5=
EXTT6=
EXTT7=
EXTT8=
EXTT9=
EXTT10=
PLAYORDER=
